<svg version="1.1" viewBox="0.0 0.0 755.6929133858267 774.1548556430446" fill="none" stroke="none" stroke-linecap="square" stroke-miterlimit="10" xmlns:xlink="http://www.w3.org/1999/xlink" xmlns="http://www.w3.org/2000/svg"><clipPath id="p.0"><path d="m0 0l755.69293 0l0 774.15485l-755.69293 0l0 -774.15485z" clip-rule="nonzero"/></clipPath><g clip-path="url(#p.0)"><path fill="#000000" fill-opacity="0.0" d="m0 0l755.69293 0l0 774.15485l-755.69293 0z" fill-rule="evenodd"/><path fill="#ff008b" d="m76.92913 367.70078l0 0c0 -160.58875 130.18289 -290.77164 290.77164 -290.77164l0 0c77.11746 0 151.07639 30.634789 205.6066 85.16505c54.530273 54.53026 85.16504 128.48917 85.16504 205.6066l0 0c0 160.58878 -130.18286 290.77164 -290.77164 290.77164l0 0c-160.58875 0 -290.77164 -130.18286 -290.77164 -290.77164z" fill-rule="evenodd"/><path stroke="#e30487" stroke-width="24.0" stroke-linejoin="round" stroke-linecap="butt" d="m76.92913 367.70078l0 0c0 -160.58875 130.18289 -290.77164 290.77164 -290.77164l0 0c77.11746 0 151.07639 30.634789 205.6066 85.16505c54.530273 54.53026 85.16504 128.48917 85.16504 205.6066l0 0c0 160.58878 -130.18286 290.77164 -290.77164 290.77164l0 0c-160.58875 0 -290.77164 -130.18286 -290.77164 -290.77164z" fill-rule="evenodd"/><path fill="#000000" fill-opacity="0.0" d="m154.77165 18.80315l425.85828 0l0 665.7953l-425.85828 0z" fill-rule="evenodd"/><path fill="#ffffff" d="m366.6399 550.10706q-35.203125 0 -69.609375 -12.796875q-34.390625 -12.8125 -62.656265 -37.34375l45.32814 -53.859375q19.734375 16.0 43.46875 26.140625q23.734375 10.125 48.796875 10.125q25.0625 0 37.0625 -8.53125q12.0 -8.546875 12.0 -21.875q0 -12.265625 -6.40625 -19.46875q-6.390625 -7.203125 -18.65625 -12.796875q-12.265625 -5.59375 -28.796875 -12.53125l-44.796875 -19.203125q-19.203125 -7.46875 -36.28125 -20.0q-17.0625 -12.53125 -27.46875 -30.921875q-10.39064 -18.40625 -10.39064 -44.015625q0 -28.796875 16.26564 -51.98439q16.265625 -23.203125 44.796875 -37.328125q28.53125 -14.140625 66.40625 -14.140625q31.46875 0 61.859375 11.734375q30.40625 11.734375 53.875 34.125l-40.0 49.593765q-18.140625 -13.328125 -36.28125 -20.515625q-18.125 -7.203125 -43.71875 -7.203125q-19.203125 0 -31.46875 8.0q-12.265625 8.0 -12.265625 23.453125q0 10.140625 7.46875 17.078125q7.46875 6.921875 20.265625 12.265625q12.796875 5.328125 29.328125 11.734375l42.140625 18.125q23.46875 8.53125 40.0 21.078125q16.53125 12.53125 25.59375 30.671875q9.0625 18.125 9.0625 42.65625q0 28.796875 -15.734375 53.328125q-15.734375 24.53125 -45.875 39.46875q-30.125 14.9375 -73.3125 14.9375z" fill-rule="nonzero"/></g></svg>