<svg version="1.1" viewBox="0.0 0.0 631.2335958005249 631.2335958005249" fill="none" stroke="none" stroke-linecap="square" stroke-miterlimit="10" xmlns:xlink="http://www.w3.org/1999/xlink" xmlns="http://www.w3.org/2000/svg"><clipPath id="p.0"><path d="m0 0l631.2336 0l0 631.2336l-631.2336 0l0 -631.2336z" clip-rule="nonzero"/></clipPath><g clip-path="url(#p.0)"><path fill="#000000" fill-opacity="0.0" d="m0 0l631.2336 0l0 631.2336l-631.2336 0z" fill-rule="evenodd"/><path fill="#ff008b" d="m21.834646 314.10498l0 0c0 -160.58875 130.1829 -290.77164 290.77164 -290.77164l0 0c77.11743 0 151.07635 30.634783 205.6066 85.16505c54.530273 54.53026 85.16504 128.48917 85.16504 205.6066l0 0c0 160.58875 -130.18289 290.77167 -290.77164 290.77167l0 0c-160.58875 0 -290.77164 -130.18292 -290.77164 -290.77167z" fill-rule="evenodd"/><path stroke="#e30487" stroke-width="24.0" stroke-linejoin="round" stroke-linecap="butt" d="m21.834646 314.10498l0 0c0 -160.58875 130.1829 -290.77164 290.77164 -290.77164l0 0c77.11743 0 151.07635 30.634783 205.6066 85.16505c54.530273 54.53026 85.16504 128.48917 85.16504 205.6066l0 0c0 160.58875 -130.18289 290.77167 -290.77164 290.77167l0 0c-160.58875 0 -290.77164 -130.18292 -290.77164 -290.77167z" fill-rule="evenodd"/><path fill="#000000" fill-opacity="0.0" d="m99.67716 -34.792652l425.8583 0l0 665.7953l-425.8583 0z" fill-rule="evenodd"/><path fill="#ffffff" d="m311.54538 496.51123q-35.203125 0 -69.60936 -12.796875q-34.390625 -12.8125 -62.65625 -37.34375l45.328125 -53.859375q19.734375 16.0 43.468735 26.140625q23.734375 10.125 48.796875 10.125q25.0625 0 37.0625 -8.53125q12.0 -8.546875 12.0 -21.875q0 -12.265625 -6.40625 -19.46875q-6.390625 -7.203125 -18.65625 -12.796875q-12.265625 -5.59375 -28.796875 -12.53125l-44.796875 -19.203125q-19.20311 -7.46875 -36.281235 -20.0q-17.0625 -12.53125 -27.46875 -30.921875q-10.390625 -18.40625 -10.390625 -44.01561q0 -28.796875 16.265625 -51.984375q16.265625 -23.203125 44.796875 -37.328125q28.531235 -14.140625 66.406235 -14.140625q31.46875 0 61.859375 11.734375q30.40625 11.734375 53.875 34.125l-40.0 49.59375q-18.140625 -13.328125 -36.28125 -20.515625q-18.125 -7.203125 -43.71875 -7.203125q-19.203125 0 -31.46875 8.0q-12.265625 8.0 -12.265625 23.453125q0 10.140625 7.46875 17.078125q7.46875 6.9218597 20.265625 12.26561q12.796875 5.328125 29.328125 11.734375l42.140625 18.125q23.46875 8.53125 40.0 21.078125q16.53125 12.53125 25.59375 30.671875q9.0625 18.125 9.0625 42.65625q0 28.796875 -15.734375 53.328125q-15.734375 24.53125 -45.875 39.46875q-30.125 14.9375 -73.3125 14.9375z" fill-rule="nonzero"/></g></svg>